<svg width="120" height="120" viewBox="0 0 120 120" fill="none" xmlns="http://www.w3.org/2000/svg">
  <rect width="120" height="120" rx="24" fill="#007AFF"/>
  <path d="M60 30C49.5 30 41 38.5 41 49V55C41 56.1 41.9 57 43 57H44V71C44 77.6 49.4 83 56 83H64C70.6 83 76 77.6 76 71V57H77C78.1 57 79 56.1 79 55V49C79 38.5 70.5 30 60 30ZM60 36C67.2 36 73 41.8 73 49V51H47V49C47 41.8 52.8 36 60 36Z" fill="white"/>
  <circle cx="60" cy="65" r="6" fill="white"/>
  <path d="M60 69C59.4 69 59 68.6 59 68V62C59 61.4 59.4 61 60 61C60.6 61 61 61.4 61 62V68C61 68.6 60.6 69 60 69Z" fill="#007AFF"/>
</svg>